<svg xmlns="http://www.w3.org/2000/svg" xml:space="preserve" width="542" height="344" x="0px" y="0px" viewBox="0 0 541.99999 344.00001"><path d="M999.38-36.577c13.622 78.066-198.9 180.301-474.735 228.343C248.844 239.807 14.217 215.429.617 137.33c-13.59-78.077 198.988-180.279 474.79-228.31C751.218-139.041 985.8-114.664 999.38-36.576Z" style="fill:#034ea2" transform="matrix(.41813 0 0 .41813 61.805 59.881)"/><path d="m67.34 17.745-.129-7.389h2.33v9.313h-3.35l-2.325-7.643h-.05l.129 7.643H61.63v-9.313h3.495l2.163 7.389z" style="fill:#fff" transform="matrix(4.59354 0 0 4.59354 64.428 11.532)"/><path d="m26.294 19.767-1.254-8.539h-.053l-1.289 8.539h-2.541l1.745-9.411h4.186l1.737 9.411z" style="fill:#fff" transform="matrix(4.59354 0 0 4.59354 61.281 11.532)"/><path d="M35.912 17.55h.05l1.163-7.194h3.838l.204 9.411h-2.352l-.062-8.461h-.049l-1.573 8.461h-2.388l-1.574-8.461h-.051l-.059 8.461h-2.357l.208-9.411h3.84z" style="fill:#fff" transform="matrix(4.59354 0 0 4.59354 61.806 11.532)"/><path d="M186.384 72.36c1.011 2.504.704 5.723.231 7.668-.868 3.438-3.197 6.943-10.074 6.943-6.482 0-10.415-3.713-10.415-9.393V67.57h-27.728l-.022 8.008c0 23.049 18.149 30.003 37.594 30.003 18.698 0 34.1-6.394 36.55-23.62 1.252-8.931.318-14.776-.11-16.984-4.361-21.642-43.603-28.102-46.525-40.208-.495-2.077-.352-4.274-.11-5.45.714-3.295 2.977-6.932 9.448-6.932 6.042 0 9.612 3.736 9.612 9.382v6.383h25.784v-7.261c0-22.522-20.214-26.037-34.858-26.037-18.39 0-33.42 6.075-36.166 22.906-.747 4.647-.857 8.788.231 13.974 4.515 21.126 41.241 27.245 46.558 40.626zM527.594 72.173c1.021 2.483.692 5.614.23 7.558-.845 3.428-3.153 6.877-9.986 6.877-6.394 0-10.294-3.713-10.294-9.26l-.022-9.921H480.08l-.033 7.899c0 22.818 17.984 29.706 37.23 29.706 18.501 0 33.76-6.306 36.167-23.378 1.252-8.866.362-14.634-.088-16.798-4.34-21.444-43.186-27.838-46.075-39.824-.495-2.065-.352-4.24-.1-5.35.737-3.318 2.956-6.866 9.36-6.866 5.988 0 9.482 3.647 9.482 9.25v6.317h25.586v-7.185c0-22.28-20.05-25.773-34.55-25.773-18.183 0-33.09 5.999-35.782 22.708-.747 4.581-.824 8.646.242 13.81 4.449 20.906 40.812 26.98 46.075 40.23zM615.692 86.06c7.174 0 9.415-4.967 9.91-7.504.208-1.12.263-2.615.241-3.955V-1.905h26.146V72.26c.055 1.9-.131 5.811-.22 6.789-1.834 19.302-17.093 25.564-36.088 25.564-19.017 0-34.287-6.262-36.1-25.564-.088-.978-.274-4.889-.22-6.79V-1.904h26.125V74.6c0 1.34.044 2.845.242 3.955.56 2.537 2.735 7.503 9.964 7.503zM835.131 84.971c7.493 0 10.107-4.734 10.59-7.492.187-1.186.242-2.626.231-3.933V58.54H835.34V43.445H872v27.75c-.022 1.934-.066 3.362-.374 6.811-1.724 18.808-18.038 25.52-36.363 25.52-18.357 0-34.65-6.712-36.396-25.52-.297-3.45-.34-4.877-.374-6.81l.022-43.538c0-1.835.23-5.087.429-6.811 2.296-19.325 17.962-25.543 36.32-25.543 18.335 0 34.385 6.185 36.286 25.543.34 3.295.23 6.81.23 6.81v3.45h-26.07v-5.79c.023.012-.032-2.46-.34-3.932-.44-2.285-2.428-7.536-10.305-7.536-7.536 0-9.744 4.965-10.293 7.536-.319 1.362-.44 3.208-.44 4.878v47.283c-.022 1.307.055 2.747.264 3.933.45 2.768 3.054 7.492 10.535 7.492z" style="fill:#fff" transform="matrix(.41813 0 0 .41813 61.805 59.881)"/><path d="M217.954 239.455v87.04h10.004v-87.04zm217.097 0v29.013h-8.004v9.003h8.004V327.607h9.004v-88.152zm13.006 0v88.152h10.005v-88.152zm72.033 0v88.152h11.004v-88.152zm-453.992.525v45.387h11.187v-16.215h9.385v-10.306h-9.385V239.98zm76.492.225v14.746h-13.877v10.307h13.877v21.017h10.77v-46.07zm125.12 1.25c0 21.429-7.03 31.896-27.018 41.958l3.97 7.991c10.632-4.016 26.23-16.288 28.904-24.003 2.579 8.02 20.896 21.386 28.867 23.731l4.217-8.087c-20.251-8.18-26.331-20.288-27.146-41.59zm56.291.393v8.004h10.005v14.138H323v8.003h55.591l-.041-8.003h-10.53v-14.138h10.005v-8.004zm-295.903-.088s2.666 23.93-17.893 35.549l6.246 7.177s12.07-6.72 17.469-19.228c0 0 9.972 15.707 18.45 18.418l6.27-6.28S38.815 266.36 39.714 241.76zm75.117 0s3.435 22.074-17.12 33.693l5.49 9.033s12.084-6.72 17.46-19.228c0 0 8.51 16.078 17 18.789l5.32-7.764s-17.954-9.923-17.05-34.523zm364.077 35.662c0 13.543 4.354 36.177 21.236 36.177 16.883 0 19.604-23.588 19.884-36.177.28-12.59-3.329-34.781-20.44-34.966-17.111-.185-20.68 21.422-20.68 34.966zm-73.26-33.965v10.003h19.01v16.007h-18.009v40.02h30.014V299.48H405.04v-22.01h18.006v-34.014zm-228.102 2v61.027h42.019v-9.003h-32.053l.538-42.52 31.515-.55v-8.954zm178.08 4.395h15.008v14.138H344.01zm143.962 1.164c8.902 0 9.301 20.654 9.287 26.406-.015 5.75.669 27.062-9.101 27.062-9.77 0-8.751-21.983-8.958-27.062-.207-5.08-.13-26.406 8.772-26.406zM316.998 277.47v8.005h69.03v-8.005zm-190.953 8.804c-16.307 0-29.531 10.019-29.531 22.358 0 12.357 13.224 22.357 29.53 22.357 16.303 0 29.509-10 29.509-22.357 0-12.34-13.206-22.358-29.508-22.358zm-101.979 3.57v38.452h53.668v-38.451ZM323 291.479v8.003h47.022v5.396H323v22.404h57.027v-7.791h-47.022l-.13-6.441 47.175-.406-.217-21.165zm-196.955 4.627c10.114 0 18.32 5.61 18.32 12.528 0 6.93-8.206 12.537-18.32 12.537-10.128 0-18.35-5.606-18.35-12.537 0-6.917 8.222-12.528 18.35-12.528zm-90.818 3.588h30.878v18.33H35.227Zm201.155 7.792.028 8.003h74.585v-8.003z" style="display:inline;opacity:1;fill:#0b50a1;fill-opacity:1;stroke-width:.997576"/></svg>